<?xml version="1.0" encoding="UTF-8" standalone="no"?>
<!-- Created with Inkscape (http://www.inkscape.org/) -->

<svg
   xmlns:dc="http://purl.org/dc/elements/1.1/"
   xmlns:cc="http://creativecommons.org/ns#"
   xmlns:rdf="http://www.w3.org/1999/02/22-rdf-syntax-ns#"
   xmlns:svg="http://www.w3.org/2000/svg"
   xmlns="http://www.w3.org/2000/svg"
   version="1.2"
   width="196.29492"
   height="476.79312"
   id="svg3020">
  <metadata
     id="metadata3026">
    <rdf:RDF>
      <cc:Work
         rdf:about="">
        <dc:format>image/svg+xml</dc:format>
        <dc:type
           rdf:resource="http://purl.org/dc/dcmitype/StillImage" />
        <dc:title></dc:title>
      </cc:Work>
    </rdf:RDF>
  </metadata>
  <defs
     id="defs3024" />
  <path
     d="m 97.38011,1.25 0.5471,53.06924"
     id="path3030"
     style="fill:none;stroke:#000000;stroke-width:2.5;stroke-linecap:round;stroke-linejoin:miter;stroke-miterlimit:4;stroke-opacity:1;stroke-dasharray:none" />
  <path
     d="m 101.72377,103.6583 -0.51392,-48.791955 -8.20659,-0.547105 -0.5471,48.69239 -12.03632,0 0.5471,12.58343"
     id="path3032"
     style="fill:none;stroke:#000000;stroke-width:2.5;stroke-linecap:round;stroke-linejoin:miter;stroke-miterlimit:4;stroke-opacity:1;stroke-dasharray:none" />
  <path
     d="m 92.74345,103.33212 4.63666,1.32083 0,12.03632"
     id="path3034"
     style="fill:none;stroke:#000000;stroke-width:2.5;stroke-linecap:round;stroke-linejoin:miter;stroke-miterlimit:4;stroke-opacity:1;stroke-dasharray:none" />
  <path
     d="m 101.75695,103.55874 6.01816,0.5471 0,4.37685 6.01816,1.09421 0.54711,4.92395"
     id="path3036"
     style="fill:none;stroke:#000000;stroke-width:2.5;stroke-linecap:round;stroke-linejoin:miter;stroke-miterlimit:4;stroke-opacity:1;stroke-dasharray:none" />
  <path
     d="m 109.3608,108.59785 -5.6095,1.35402 -0.66041,16.55161"
     id="path3038"
     style="fill:none;stroke:#000000;stroke-width:2.5;stroke-linecap:round;stroke-linejoin:miter;stroke-miterlimit:4;stroke-opacity:1;stroke-dasharray:none" />
  <path
     d="m 80.73301,115.56137 -6.77009,12.37959"
     id="path3040"
     style="fill:none;stroke:#000000;stroke-width:2.5;stroke-linecap:round;stroke-linejoin:miter;stroke-miterlimit:4;stroke-opacity:1;stroke-dasharray:none" />
  <path
     d="m 96.79751,116.00488 -8.13383,-0.44351 -0.19343,4.83578 -2.70803,6.18979 0,0.19343"
     id="path3044"
     style="fill:none;stroke:#000000;stroke-width:2.5;stroke-linecap:round;stroke-linejoin:miter;stroke-miterlimit:4;stroke-opacity:1;stroke-dasharray:none" />
  <path
     d="m 89.43741,121.3643 1.84446,3.3547"
     id="path3046"
     style="fill:none;stroke:#000000;stroke-width:2.5;stroke-linecap:round;stroke-linejoin:miter;stroke-miterlimit:4;stroke-opacity:1;stroke-dasharray:none" />
  <path
     d="m 97.36808,115.7548 0,9.67155"
     id="path3048"
     style="fill:none;stroke:#000000;stroke-width:2.5;stroke-linecap:round;stroke-linejoin:miter;stroke-miterlimit:4;stroke-opacity:1;stroke-dasharray:none" />
  <path
     d="m 104.71846,118.8497 5.80293,0.19343"
     id="path3052"
     style="fill:none;stroke:#000000;stroke-width:2.5;stroke-linecap:round;stroke-linejoin:miter;stroke-miterlimit:4;stroke-opacity:1;stroke-dasharray:none" />
  <path
     d="m 114.39001,114.01392 5.99636,7.93067"
     id="path3054"
     style="fill:none;stroke:#000000;stroke-width:2.5;stroke-linecap:round;stroke-linejoin:miter;stroke-miterlimit:4;stroke-opacity:1;stroke-dasharray:none" />
  <path
     d="m 114.77687,114.98108 0.19343,12.76644"
     id="path3056"
     style="fill:none;stroke:#000000;stroke-width:2.5;stroke-linecap:round;stroke-linejoin:miter;stroke-miterlimit:4;stroke-opacity:1;stroke-dasharray:none" />
  <path
     d="m 74.73665,127.55409 3.09489,-0.19343 0.5803,9.86498"
     id="path3058"
     style="fill:none;stroke:#000000;stroke-width:2.5;stroke-linecap:round;stroke-linejoin:miter;stroke-miterlimit:4;stroke-opacity:1;stroke-dasharray:none" />
  <path
     d="m 81.2429,116.07863 0.84413,20.56672"
     id="path3062"
     style="fill:none;stroke:#000000;stroke-width:2.5;stroke-linecap:round;stroke-linejoin:miter;stroke-miterlimit:4;stroke-opacity:1;stroke-dasharray:none" />
  <path
     d="m 85.95565,126.39351 0.11331,14.79865"
     id="path3064"
     style="fill:none;stroke:#000000;stroke-width:2.5;stroke-linecap:round;stroke-linejoin:miter;stroke-miterlimit:4;stroke-opacity:1;stroke-dasharray:none" />
  <path
     d="m 103.17101,126.58694 0.77373,197.49308"
     id="path3070"
     style="fill:none;stroke:#000000;stroke-width:2.5;stroke-linecap:round;stroke-linejoin:miter;stroke-miterlimit:4;stroke-opacity:1;stroke-dasharray:none" />
  <path
     d="m 110.82813,119.12089 0.27355,50.02087"
     id="path3072"
     style="fill:none;stroke:#000000;stroke-width:2.5;stroke-linecap:round;stroke-linejoin:miter;stroke-miterlimit:4;stroke-opacity:1;stroke-dasharray:none" />
  <path
     d="m 114.9703,127.55409 0.58029,41.97454"
     id="path3074"
     style="fill:none;stroke:#000000;stroke-width:2.5;stroke-linecap:round;stroke-linejoin:miter;stroke-miterlimit:4;stroke-opacity:1;stroke-dasharray:none" />
  <path
     d="m 120.19294,121.17087 0.19343,19.9234 3.67519,-0.19344 -0.19343,32.77969"
     id="path3076"
     style="fill:none;stroke:#000000;stroke-width:2.5;stroke-linecap:round;stroke-linejoin:miter;stroke-miterlimit:4;stroke-opacity:1;stroke-dasharray:none" />
  <path
     d="m 122.38637,141.09427 -2.70803,-0.19344 0.58029,29.40152"
     id="path3078"
     style="fill:none;stroke:#000000;stroke-width:2.5;stroke-linecap:round;stroke-linejoin:miter;stroke-miterlimit:4;stroke-opacity:1;stroke-dasharray:none" />
  <path
     d="m 73.51941,128.57554 -0.13678,12.51873 -3.28833,-0.38687 0.19343,29.20809"
     id="path3080"
     style="fill:none;stroke:#000000;stroke-width:2.5;stroke-linecap:round;stroke-linejoin:miter;stroke-miterlimit:4;stroke-opacity:1;stroke-dasharray:none" />
  <path
     d="m 73.76949,141.2877 5.6095,0 0.19343,28.82122"
     id="path3082"
     style="fill:none;stroke:#000000;stroke-width:2.5;stroke-linecap:round;stroke-linejoin:miter;stroke-miterlimit:4;stroke-opacity:1;stroke-dasharray:none" />
  <path
     d="m 69.90087,169.72206 -1.16058,4.44891 0.19343,151.26306 0,2.32118 -6.96352,0 0.58029,17.21536 -2.12774,-0.19343 -0.19343,18.56937 -10.44527,0 -0.19344,45.64973 -0.19343,2.32117 -20.89055,0 0.5803,17.98909 -1.93431,0 -0.38687,3.86862 -5.6095,-0.19344 0,3.28833"
     id="path3084"
     style="fill:none;stroke:#000000;stroke-width:2.5;stroke-linecap:round;stroke-linejoin:miter;stroke-miterlimit:4;stroke-opacity:1;stroke-dasharray:none" />
  <path
     d="m 91.53196,125.48634 -0.54711,46.36346 -7.15694,0 0.58029,170.02587"
     id="path3086"
     style="fill:none;stroke:#000000;stroke-width:2.5;stroke-linecap:round;stroke-linejoin:miter;stroke-miterlimit:4;stroke-opacity:1;stroke-dasharray:none" />
  <path
     d="m 90.98485,171.65637 2.70804,0 0.19343,152.42365 -4.25549,0.38686 1.74089,83.75563"
     id="path3088"
     style="fill:none;stroke:#000000;stroke-width:2.5;stroke-linecap:round;stroke-linejoin:miter;stroke-miterlimit:4;stroke-opacity:1;stroke-dasharray:none" />
  <path
     d="m 94.46661,323.88659 4.06205,0.19343 -0.38686,84.72279"
     id="path3090"
     style="fill:none;stroke:#000000;stroke-width:2.5;stroke-linecap:round;stroke-linejoin:miter;stroke-miterlimit:4;stroke-opacity:1;stroke-dasharray:none" />
  <path
     d="m 97.36808,125.23292 2.12774,189.17554"
     id="path3092"
     style="fill:none;stroke:#000000;stroke-width:2.5;stroke-linecap:round;stroke-linejoin:miter;stroke-miterlimit:4;stroke-opacity:1;stroke-dasharray:none" />
  <path
     d="m 78.99213,170.30235 -2.90146,3.48176 -0.77372,167.51127"
     id="path3094"
     style="fill:none;stroke:#000000;stroke-width:2.5;stroke-linecap:round;stroke-linejoin:miter;stroke-miterlimit:4;stroke-opacity:1;stroke-dasharray:none" />
  <path
     d="m 63.50959,345.33453 4.07451,0.5712 -0.004,83.98106 -2.5146,1.45074 0.19343,4.54562"
     id="path3096"
     style="fill:none;stroke:#000000;stroke-width:2.5;stroke-linecap:round;stroke-linejoin:miter;stroke-miterlimit:4;stroke-opacity:1;stroke-dasharray:none" />
  <path
     d="m 115.55059,169.52863 -0.38686,4.44891 4.06205,0.19343 -0.19343,166.54176"
     id="path3098"
     style="fill:none;stroke:#000000;stroke-width:2.5;stroke-linecap:round;stroke-linejoin:miter;stroke-miterlimit:4;stroke-opacity:1;stroke-dasharray:none" />
  <path
     d="m 114.39001,173.59068 0.38686,174.86165"
     id="path3100"
     style="fill:none;stroke:#000000;stroke-width:2.5;stroke-linecap:round;stroke-linejoin:miter;stroke-miterlimit:4;stroke-opacity:1;stroke-dasharray:none" />
  <path
     d="m 123.94354,174.11431 2.24576,0.0567 -0.58029,151.06963 7.15695,1.16059 -0.19344,18.95624 1.74088,1.25446 -0.38686,14.80031 10.83214,0.5803 0.38686,46.61688 0,1.93431 21.85771,0.19343 1.40095,15.87273 1.33567,2.51477 0.31901,3.20503 3.32759,0.65203 -0.19343,1.93431"
     id="path3102"
     style="fill:none;stroke:#000000;stroke-width:2.5;stroke-linecap:round;stroke-linejoin:miter;stroke-miterlimit:4;stroke-opacity:1;stroke-dasharray:none" />
  <path
     d="m 79.37899,170.10892 0.5803,174.86165"
     id="path3104"
     style="fill:none;stroke:#000000;stroke-width:2.5;stroke-linecap:round;stroke-linejoin:miter;stroke-miterlimit:4;stroke-opacity:1;stroke-dasharray:none" />
  <path
     d="m 50.17091,411.51084 4.64234,0 0.5803,18.95624 -4.64235,0.58029 -0.19343,5.22264"
     id="path3106"
     style="fill:none;stroke:#ff0000;stroke-width:2.5;stroke-linecap:round;stroke-linejoin:miter;stroke-miterlimit:4;stroke-opacity:1;stroke-dasharray:none" />
  <path
     d="m 84.99987,408.49606 0.0218,20.68338 -3.38789,1.28764 -0.0332,5.63297"
     id="path3108"
     style="fill:none;stroke:#000000;stroke-width:2.5;stroke-linecap:round;stroke-linejoin:miter;stroke-miterlimit:4;stroke-opacity:1;stroke-dasharray:none" />
  <path
     d="m 98.1418,408.80281 -2.90146,3.09489 -0.38687,25.1913"
     id="path3110"
     style="fill:none;stroke:#000000;stroke-width:2.5;stroke-linecap:round;stroke-linejoin:miter;stroke-miterlimit:4;stroke-opacity:1;stroke-dasharray:none" />
  <path
     d="m 98.1418,408.89952 5.41607,3.38504 0,18.37595 4.64235,0 0.19343,5.02921"
     id="path3112"
     style="fill:none;stroke:#000000;stroke-width:2.5;stroke-linecap:round;stroke-linejoin:miter;stroke-miterlimit:4;stroke-opacity:1;stroke-dasharray:none" />
  <path
     d="m 103.7513,430.85394 -2.12774,-0.38686 -0.19343,5.41607"
     id="path3116"
     style="fill:none;stroke:#000000;stroke-width:2.5;stroke-linecap:round;stroke-linejoin:miter;stroke-miterlimit:4;stroke-opacity:1;stroke-dasharray:none" />
  <path
     d="m 114.77687,348.06546 -3.33526,4.92395 0.24036,58.13457 3.20821,0.49045 1.04728,18.65922 -3.48176,0.77372 -0.96716,5.02921"
     id="path3118"
     style="fill:none;stroke:#000000;stroke-width:2.5;stroke-linecap:round;stroke-linejoin:miter;stroke-miterlimit:4;stroke-opacity:1;stroke-dasharray:none" />
  <path
     d="m 116.32432,429.88679 3.0949,0.58029 -0.19344,4.83578"
     id="path3120"
     style="fill:none;stroke:#000000;stroke-width:2.5;stroke-linecap:round;stroke-linejoin:miter;stroke-miterlimit:4;stroke-opacity:1;stroke-dasharray:none" />
  <path
     d="m 125.60901,325.04717 -2.32117,0.77373 1.93431,110.25568"
     id="path3122"
     style="fill:none;stroke:#ff0000;stroke-width:2.5;stroke-linecap:round;stroke-linejoin:miter;stroke-miterlimit:4;stroke-opacity:1;stroke-dasharray:none" />
  <path
     d="m 131.60537,345.164 -2.15722,2.27241 -0.28698,88.33343"
     id="path3124"
     style="fill:none;stroke:#000000;stroke-width:2.5;stroke-linecap:round;stroke-linejoin:miter;stroke-miterlimit:4;stroke-opacity:1;stroke-dasharray:none" />
  <path
     d="m 144.95211,410.54369 -6.57665,0.58029 0.58029,7.35038 6.38322,-0.38686 0.77373,4.25548 9.73625,0.62723 -0.19343,5.36913 2.64333,-0.19343 -0.74054,7.8586"
     id="path3128"
     style="fill:none;stroke:#000000;stroke-width:2.5;stroke-linecap:round;stroke-linejoin:miter;stroke-miterlimit:4;stroke-opacity:1;stroke-dasharray:none" />
  <path
     d="m 138.76232,418.66779 0.19343,17.21536"
     id="path3130"
     style="fill:none;stroke:#000000;stroke-width:2.5;stroke-linecap:round;stroke-linejoin:miter;stroke-miterlimit:4;stroke-opacity:1;stroke-dasharray:none" />
  <path
     d="m 146.1127,422.14955 -0.5803,5.41607 -2.90146,-0.38687 0,8.31754"
     id="path3132"
     style="fill:none;stroke:#000000;stroke-width:2.5;stroke-linecap:round;stroke-linejoin:miter;stroke-miterlimit:4;stroke-opacity:1;stroke-dasharray:none" />
  <path
     d="m 144.30613,427.75905 2.5146,0.19343 0,7.35038"
     id="path3134"
     style="fill:none;stroke:#000000;stroke-width:2.5;stroke-linecap:round;stroke-linejoin:miter;stroke-miterlimit:4;stroke-opacity:1;stroke-dasharray:none" />
  <path
     d="m 155.38197,428.53277 -4.0217,0.25073 -0.0249,6.13249"
     id="path3136"
     style="fill:none;stroke:#000000;stroke-width:2.5;stroke-linecap:round;stroke-linejoin:miter;stroke-miterlimit:4;stroke-opacity:1;stroke-dasharray:none" />
  <path
     d="m 29.66722,422.34298 8.31753,-0.38686 -0.58029,5.6095 6.38322,0.19343 -0.38686,7.35038"
     id="path3138"
     style="fill:none;stroke:#000000;stroke-width:2.5;stroke-linecap:round;stroke-linejoin:miter;stroke-miterlimit:4;stroke-opacity:1;stroke-dasharray:none" />
  <path
     d="m 37.59789,427.95248 -4.64234,-0.38686 0.46698,7.97191"
     id="path3140"
     style="fill:none;stroke:#000000;stroke-width:2.5;stroke-linecap:round;stroke-linejoin:miter;stroke-miterlimit:4;stroke-opacity:1;stroke-dasharray:none" />
  <path
     d="m 84.65425,408.07602 0.11332,-62.67165 -9.64406,-0.82066 1.16059,68.86144 -4.64235,0.38686 -0.38686,16.24821 2.0974,1.36089 0.92709,4.16849"
     id="path3144"
     style="fill:none;stroke:#000000;stroke-width:2.5;stroke-linecap:round;stroke-linejoin:miter;stroke-miterlimit:4;stroke-opacity:1;stroke-dasharray:none" />
  <path
     d="m 57.62982,363.43388 4.37685,0 0.5471,62.91714"
     id="path3209"
     style="fill:none;stroke:#000000;stroke-width:2.5;stroke-linecap:round;stroke-linejoin:miter;stroke-miterlimit:4;stroke-opacity:1;stroke-dasharray:none" />
  <path
     d="m 55.25298,430.72787 5.47106,0.5471 0,4.37684"
     id="path3211"
     style="fill:none;stroke:#ff0000;stroke-width:2.5;stroke-linecap:round;stroke-linejoin:miter;stroke-miterlimit:4;stroke-opacity:1;stroke-dasharray:none" />
  <path
     d="m 85.89089,429.08655 3.82974,0.5471 -0.54711,7.65948"
     id="path3213"
     style="fill:none;stroke:#ff0000;stroke-width:2.5;stroke-linecap:round;stroke-linejoin:miter;stroke-miterlimit:4;stroke-opacity:1;stroke-dasharray:none" />
  <path
     d="m 167.95673,426.26589 -5.74461,3.91486 0,5.47106"
     id="path3215"
     style="fill:none;stroke:#000000;stroke-width:2.5;stroke-linecap:round;stroke-linejoin:miter;stroke-miterlimit:4;stroke-opacity:1;stroke-dasharray:none" />
  <path
     d="m 115.16104,347.84137 4.10329,5.1975 0.83441,59.55105"
     id="path3053"
     style="fill:none;stroke:#000000;stroke-width:2.5;stroke-linecap:round;stroke-linejoin:miter;stroke-miterlimit:4;stroke-opacity:1;stroke-dasharray:none" />
  <path
     d="m 111.60486,410.62174 -3.82974,0.95743 0,13.67764"
     id="path3055"
     style="fill:none;stroke:#000000;stroke-width:2.5;stroke-linecap:round;stroke-linejoin:miter;stroke-miterlimit:4;stroke-opacity:1;stroke-dasharray:none" />
  <path
     d="m 75.49589,413.76759 3.82974,0 -1.10475,22.02126"
     id="path3059"
     style="fill:none;stroke:#000000;stroke-width:2.5;stroke-linecap:round;stroke-linejoin:miter;stroke-miterlimit:4;stroke-opacity:1;stroke-dasharray:none" />
  <path
     d="m 134.03618,361.24546 2.18843,74.40635"
     id="path3061"
     style="fill:none;stroke:#000000;stroke-width:2.5;stroke-linecap:round;stroke-linejoin:miter;stroke-miterlimit:4;stroke-opacity:1;stroke-dasharray:none" />
  <flowRoot
     transform="translate(31.875,398.97077)"
     id="flowRoot3817"
     xml:space="preserve"
     style="font-size:40px;font-style:normal;font-weight:normal;line-height:125%;letter-spacing:0px;word-spacing:0px;fill:#000000;fill-opacity:1;stroke:none;font-family:Sans"><flowRegion
       id="flowRegion3819"><rect
         width="277.76694"
         height="71.182617"
         x="-33.270138"
         y="37.882355"
         id="rect3821" /></flowRegion><flowPara
       id="flowPara3823"
       style="font-size:36px;font-style:normal;font-variant:normal;font-weight:normal;font-stretch:normal;font-family:Comfortaa;-inkscape-font-specification:Comfortaa">Physcraper</flowPara></flowRoot></svg>
