<?xml version="1.0" encoding="UTF-8" standalone="no"?>
<svg
   xmlns:dc="http://purl.org/dc/elements/1.1/"
   xmlns:cc="http://creativecommons.org/ns#"
   xmlns:rdf="http://www.w3.org/1999/02/22-rdf-syntax-ns#"
   xmlns:svg="http://www.w3.org/2000/svg"
   xmlns="http://www.w3.org/2000/svg"
   xmlns:sodipodi="http://sodipodi.sourceforge.net/DTD/sodipodi-0.dtd"
   xmlns:inkscape="http://www.inkscape.org/namespaces/inkscape"
   inkscape:version="1.0 (6e3e5246a0, 2020-05-07)"
   sodipodi:docname="physcraper.svg"
   viewBox="0 0 206.2464 510.71851"
   height="510.71851"
   width="206.2464"
   xml:space="preserve"
   id="svg2"
   version="1.1"><metadata
     id="metadata8"><rdf:RDF><cc:Work
         rdf:about=""><dc:format>image/svg+xml</dc:format><dc:type
           rdf:resource="http://purl.org/dc/dcmitype/StillImage" /><dc:title></dc:title></cc:Work></rdf:RDF></metadata><defs
     id="defs6" /><sodipodi:namedview
     fit-margin-bottom="0"
     fit-margin-right="0"
     fit-margin-left="0"
     fit-margin-top="0"
     inkscape:snap-global="false"
     inkscape:current-layer="text248"
     inkscape:window-maximized="1"
     inkscape:window-y="27"
     inkscape:window-x="54"
     inkscape:cy="467.89567"
     inkscape:cx="110.44012"
     inkscape:zoom="4.1387228"
     showgrid="false"
     id="namedview4"
     inkscape:window-height="1016"
     inkscape:window-width="1866"
     inkscape:pageshadow="2"
     inkscape:pageopacity="0"
     guidetolerance="10"
     gridtolerance="10"
     objecttolerance="10"
     borderopacity="1"
     bordercolor="#666666"
     pagecolor="#ffffff" /><g
     transform="matrix(1.3333333,0,0,-1.3333333,1.6600001,508.57933)"
     inkscape:label="physcraper1"
     inkscape:groupmode="layer"
     id="g10"><g
       id="g12"><g
         transform="matrix(1,0,0,-1,0,381.43451)"
         id="g14"><path
           id="path16"
           style="fill:none;stroke:#000000;stroke-width:2;stroke-linecap:round;stroke-linejoin:miter;stroke-miterlimit:4;stroke-dasharray:none;stroke-opacity:1"
           d="M 77.902,1 78.34,43.457" /></g><g
         transform="matrix(1,0,0,-1,0,381.43451)"
         id="g18"><path
           id="path20"
           style="fill:none;stroke:#000000;stroke-width:2;stroke-linecap:round;stroke-linejoin:miter;stroke-miterlimit:4;stroke-dasharray:none;stroke-opacity:1"
           d="M 81.379,82.926 80.969,43.895 74.402,43.457 73.965,82.41 h -9.629 l 0.437,10.067" /></g><g
         transform="matrix(1,0,0,-1,0,381.43451)"
         id="g22"><path
           id="path24"
           style="fill:none;stroke:#000000;stroke-width:2;stroke-linecap:round;stroke-linejoin:miter;stroke-miterlimit:4;stroke-dasharray:none;stroke-opacity:1"
           d="m 74.195,82.664 3.707,1.059 v 9.629" /></g><g
         transform="matrix(1,0,0,-1,0,381.43451)"
         id="g26"><path
           id="path28"
           style="fill:none;stroke:#000000;stroke-width:2;stroke-linecap:round;stroke-linejoin:miter;stroke-miterlimit:4;stroke-dasharray:none;stroke-opacity:1"
           d="m 81.406,82.848 4.813,0.437 v 3.5 l 4.816,0.875 0.438,3.942" /></g><g
         transform="matrix(1,0,0,-1,0,381.43451)"
         id="g30"><path
           id="path32"
           style="fill:none;stroke:#000000;stroke-width:2;stroke-linecap:round;stroke-linejoin:miter;stroke-miterlimit:4;stroke-dasharray:none;stroke-opacity:1"
           d="M 87.488,86.879 83,87.961 82.473,101.203" /></g><g
         transform="matrix(1,0,0,-1,0,381.43451)"
         id="g34"><path
           id="path36"
           style="fill:none;stroke:#000000;stroke-width:2;stroke-linecap:round;stroke-linejoin:miter;stroke-miterlimit:4;stroke-dasharray:none;stroke-opacity:1"
           d="m 64.586,92.449 -5.414,9.903" /></g><g
         transform="matrix(1,0,0,-1,0,381.43451)"
         id="g38"><path
           id="path40"
           style="fill:none;stroke:#000000;stroke-width:2;stroke-linecap:round;stroke-linejoin:miter;stroke-miterlimit:4;stroke-dasharray:none;stroke-opacity:1"
           d="m 77.438,92.805 -6.508,-0.356 -0.153,3.867 -2.168,4.954 v 0.156" /></g><g
         transform="matrix(1,0,0,-1,0,381.43451)"
         id="g42"><path
           id="path44"
           style="fill:none;stroke:#000000;stroke-width:2;stroke-linecap:round;stroke-linejoin:miter;stroke-miterlimit:4;stroke-dasharray:none;stroke-opacity:1"
           d="m 71.551,97.09 1.476,2.683" /></g><g
         transform="matrix(1,0,0,-1,0,381.43451)"
         id="g46"><path
           id="path48"
           style="fill:none;stroke:#000000;stroke-width:2;stroke-linecap:round;stroke-linejoin:miter;stroke-miterlimit:4;stroke-dasharray:none;stroke-opacity:1"
           d="m 77.895,92.605 v 7.735" /></g><g
         transform="matrix(1,0,0,-1,0,381.43451)"
         id="g50"><path
           id="path52"
           style="fill:none;stroke:#000000;stroke-width:2;stroke-linecap:round;stroke-linejoin:miter;stroke-miterlimit:4;stroke-dasharray:none;stroke-opacity:1"
           d="m 83.773,95.078 4.645,0.156" /></g><g
         transform="matrix(1,0,0,-1,0,381.43451)"
         id="g54"><path
           id="path56"
           style="fill:none;stroke:#000000;stroke-width:2;stroke-linecap:round;stroke-linejoin:miter;stroke-miterlimit:4;stroke-dasharray:none;stroke-opacity:1"
           d="m 91.512,91.211 4.797,6.344" /></g><g
         transform="matrix(1,0,0,-1,0,381.43451)"
         id="g58"><path
           id="path60"
           style="fill:none;stroke:#000000;stroke-width:2;stroke-linecap:round;stroke-linejoin:miter;stroke-miterlimit:4;stroke-dasharray:none;stroke-opacity:1"
           d="m 91.82,91.984 0.157,10.215" /></g><g
         transform="matrix(1,0,0,-1,0,381.43451)"
         id="g62"><path
           id="path64"
           style="fill:none;stroke:#000000;stroke-width:2;stroke-linecap:round;stroke-linejoin:miter;stroke-miterlimit:4;stroke-dasharray:none;stroke-opacity:1"
           d="m 59.789,102.043 2.477,-0.156 0.464,7.894" /></g><g
         transform="matrix(1,0,0,-1,0,381.43451)"
         id="g66"><path
           id="path68"
           style="fill:none;stroke:#000000;stroke-width:2;stroke-linecap:round;stroke-linejoin:miter;stroke-miterlimit:4;stroke-dasharray:none;stroke-opacity:1"
           d="m 64.996,92.863 0.672,16.453" /></g><g
         transform="matrix(1,0,0,-1,0,381.43451)"
         id="g70"><path
           id="path72"
           style="fill:none;stroke:#000000;stroke-width:2;stroke-linecap:round;stroke-linejoin:miter;stroke-miterlimit:4;stroke-dasharray:none;stroke-opacity:1"
           d="m 68.766,101.113 0.089,11.84" /></g><g
         transform="matrix(1,0,0,-1,0,381.43451)"
         id="g74"><path
           id="path76"
           style="fill:none;stroke:#000000;stroke-width:2;stroke-linecap:round;stroke-linejoin:miter;stroke-miterlimit:4;stroke-dasharray:none;stroke-opacity:1"
           d="m 82.535,101.27 0.621,157.996" /></g><g
         transform="matrix(1,0,0,-1,0,381.43451)"
         id="g78"><path
           id="path80"
           style="fill:none;stroke:#000000;stroke-width:2;stroke-linecap:round;stroke-linejoin:miter;stroke-miterlimit:4;stroke-dasharray:none;stroke-opacity:1"
           d="m 88.664,95.297 0.219,40.015" /></g><g
         transform="matrix(1,0,0,-1,0,381.43451)"
         id="g82"><path
           id="path84"
           style="fill:none;stroke:#000000;stroke-width:2;stroke-linecap:round;stroke-linejoin:miter;stroke-miterlimit:4;stroke-dasharray:none;stroke-opacity:1"
           d="m 91.977,102.043 0.464,33.578" /></g><g
         transform="matrix(1,0,0,-1,0,381.43451)"
         id="g86"><path
           id="path88"
           style="fill:none;stroke:#000000;stroke-width:2;stroke-linecap:round;stroke-linejoin:miter;stroke-miterlimit:4;stroke-dasharray:none;stroke-opacity:1"
           d="m 96.156,96.938 0.153,15.937 2.941,-0.156 -0.156,26.226" /></g><g
         transform="matrix(1,0,0,-1,0,381.43451)"
         id="g90"><path
           id="path92"
           style="fill:none;stroke:#000000;stroke-width:2;stroke-linecap:round;stroke-linejoin:miter;stroke-miterlimit:4;stroke-dasharray:none;stroke-opacity:1"
           d="m 97.91,112.875 -2.168,-0.156 0.465,23.523" /></g><g
         transform="matrix(1,0,0,-1,0,381.43451)"
         id="g94"><path
           id="path96"
           style="fill:none;stroke:#000000;stroke-width:2;stroke-linecap:round;stroke-linejoin:miter;stroke-miterlimit:4;stroke-dasharray:none;stroke-opacity:1"
           d="m 58.816,102.859 -0.109,10.016 -2.633,-0.309 0.156,23.368" /></g><g
         transform="matrix(1,0,0,-1,0,381.43451)"
         id="g98"><path
           id="path100"
           style="fill:none;stroke:#000000;stroke-width:2;stroke-linecap:round;stroke-linejoin:miter;stroke-miterlimit:4;stroke-dasharray:none;stroke-opacity:1"
           d="m 59.016,113.031 h 4.488 l 0.152,23.055" /></g><g
         transform="matrix(1,0,0,-1,0,381.43451)"
         id="g102"><path
           sodipodi:nodetypes="ccccccccccccccccc"
           id="path104"
           style="opacity:1;fill:none;stroke:#000000;stroke-width:2;stroke-linecap:round;stroke-linejoin:miter;stroke-miterlimit:4;stroke-dasharray:none;stroke-opacity:1"
           d="m 55.922,135.777 -0.93,3.559 0.156,121.012 v 1.855 h -5.574 l 0.465,13.774 -1.699,-0.157 -0.156,14.856 h -8.356 l -0.156,36.519 -0.152,1.86 H 22.805 l 0.465,14.39 h -1.547 l -0.309,3.094 -5.200464,-0.152 -0.04357,10.25695" /></g><g
         transform="matrix(1,0,0,-1,0,381.43451)"
         id="g106"><path
           id="path108"
           style="fill:none;stroke:#000000;stroke-width:2;stroke-linecap:round;stroke-linejoin:miter;stroke-miterlimit:4;stroke-dasharray:none;stroke-opacity:1"
           d="M 73.227,100.391 72.789,137.48 H 67.062 L 67.527,273.5" /></g><g
         transform="matrix(1,0,0,-1,0,381.43451)"
         id="g110"><path
           id="path112"
           style="fill:none;stroke:#000000;stroke-width:2;stroke-linecap:round;stroke-linejoin:miter;stroke-miterlimit:4;stroke-dasharray:none;stroke-opacity:1"
           d="m 72.789,137.324 h 2.164 l 0.156,121.942 -3.406,0.308 1.395,67.004" /></g><g
         transform="matrix(1,0,0,-1,0,381.43451)"
         id="g114"><path
           id="path116"
           style="fill:none;stroke:#000000;stroke-width:2;stroke-linecap:round;stroke-linejoin:miter;stroke-miterlimit:4;stroke-dasharray:none;stroke-opacity:1"
           d="m 75.574,259.109 3.25,0.157 -0.312,67.777" /></g><g
         transform="matrix(1,0,0,-1,0,381.43451)"
         id="g118"><path
           id="path120"
           style="fill:none;stroke:#000000;stroke-width:2;stroke-linecap:round;stroke-linejoin:miter;stroke-miterlimit:4;stroke-dasharray:none;stroke-opacity:1"
           d="m 77.895,100.188 1.703,151.339" /></g><g
         transform="matrix(1,0,0,-1,0,381.43451)"
         id="g122"><path
           id="path124"
           style="fill:none;stroke:#000000;stroke-width:2;stroke-linecap:round;stroke-linejoin:miter;stroke-miterlimit:4;stroke-dasharray:none;stroke-opacity:1"
           d="m 63.195,136.242 -2.324,2.785 -0.617,134.008" /></g><g
         transform="matrix(1,0,0,-1,0,381.43451)"
         id="g126"><path
           id="path128"
           style="fill:none;stroke:#000000;stroke-width:2;stroke-linecap:round;stroke-linejoin:miter;stroke-miterlimit:4;stroke-dasharray:none;stroke-opacity:1"
           d="m 50.809,276.27 3.257,0.453 -0.004,67.187 -2.011,1.16 0.156,3.637" /></g><g
         transform="matrix(1,0,0,-1,0,381.43451)"
         id="g130"><path
           id="path132"
           style="fill:none;stroke:#000000;stroke-width:2;stroke-linecap:round;stroke-linejoin:miter;stroke-miterlimit:4;stroke-dasharray:none;stroke-opacity:1"
           d="m 92.441,135.621 -0.308,3.563 3.246,0.152 -0.152,133.234" /></g><g
         transform="matrix(1,0,0,-1,0,381.43451)"
         id="g134"><path
           id="path136"
           style="fill:none;stroke:#000000;stroke-width:2;stroke-linecap:round;stroke-linejoin:miter;stroke-miterlimit:4;stroke-dasharray:none;stroke-opacity:1"
           d="M 91.512,138.871 91.82,278.762" /></g><g
         transform="matrix(1,0,0,-1,0,381.43451)"
         id="g138"><path
           id="path140"
           style="fill:none;stroke:#000000;stroke-width:2;stroke-linecap:round;stroke-linejoin:miter;stroke-miterlimit:4;stroke-dasharray:none;stroke-opacity:1"
           d="m 99.156,139.293 1.797,0.043 -0.465,120.855 5.723,0.93 -0.152,15.164 1.39,1.004 -0.308,11.84 8.668,0.465 0.308,37.293 v 1.547 l 17.485,0.156 1.121,12.699 1.07,2.012 0.254,2.562 2.664,0.524 -0.156,1.547" /></g><g
         transform="matrix(1,0,0,-1,0,381.43451)"
         id="g142"><path
           id="path144"
           style="fill:none;stroke:#000000;stroke-width:2;stroke-linecap:round;stroke-linejoin:miter;stroke-miterlimit:4;stroke-dasharray:none;stroke-opacity:1"
           d="m 63.504,136.086 0.465,139.891" /></g><g
         transform="matrix(1,0,0,-1,0,381.43451)"
         id="g146"><path
           id="path148"
           style="fill:none;stroke:#ff0000;stroke-width:2;stroke-linecap:round;stroke-linejoin:miter;stroke-miterlimit:4;stroke-dasharray:none;stroke-opacity:1"
           d="m 40.137,329.207 h 3.715 l 0.464,15.168 -3.714,0.465 -0.157,4.176" /></g><g
         transform="matrix(1,0,0,-1,0,381.43451)"
         id="g150"><path
           id="path152"
           style="fill:none;stroke:#000000;stroke-width:2;stroke-linecap:round;stroke-linejoin:miter;stroke-miterlimit:4;stroke-dasharray:none;stroke-opacity:1"
           d="m 68,326.797 0.016,16.547 -2.707,1.031 -0.028,4.504" /></g><g
         transform="matrix(1,0,0,-1,0,381.43451)"
         id="g154"><path
           id="path156"
           style="fill:none;stroke:#000000;stroke-width:2;stroke-linecap:round;stroke-linejoin:miter;stroke-miterlimit:4;stroke-dasharray:none;stroke-opacity:1"
           d="m 78.512,327.043 -2.321,2.477 -0.308,20.152" /></g><g
         transform="matrix(1,0,0,-1,0,381.43451)"
         id="g158"><path
           id="path160"
           style="fill:none;stroke:#000000;stroke-width:2;stroke-linecap:round;stroke-linejoin:miter;stroke-miterlimit:4;stroke-dasharray:none;stroke-opacity:1"
           d="m 78.512,327.121 4.336,2.707 v 14.699 h 3.711 l 0.156,4.024" /></g><g
         transform="matrix(1,0,0,-1,0,381.43451)"
         id="g162"><path
           id="path164"
           style="fill:none;stroke:#000000;stroke-width:2;stroke-linecap:round;stroke-linejoin:miter;stroke-miterlimit:4;stroke-dasharray:none;stroke-opacity:1"
           d="m 83,344.684 -1.699,-0.309 -0.156,4.332" /></g><g
         transform="matrix(1,0,0,-1,0,381.43451)"
         id="g166"><path
           id="path168"
           style="fill:none;stroke:#000000;stroke-width:2;stroke-linecap:round;stroke-linejoin:miter;stroke-miterlimit:4;stroke-dasharray:none;stroke-opacity:1"
           d="m 91.82,278.453 -2.668,3.938 0.192,46.507 2.57,0.395 0.836,14.926 -2.785,0.621 -0.774,4.019" /></g><g
         transform="matrix(1,0,0,-1,0,381.43451)"
         id="g170"><path
           id="path172"
           style="fill:none;stroke:#000000;stroke-width:2;stroke-linecap:round;stroke-linejoin:miter;stroke-miterlimit:4;stroke-dasharray:none;stroke-opacity:1"
           d="m 93.059,343.91 2.476,0.465 -0.156,3.867" /></g><g
         transform="matrix(1,0,0,-1,0,381.43451)"
         id="g174"><path
           id="path176"
           style="fill:none;stroke:#ff0000;stroke-width:2;stroke-linecap:round;stroke-linejoin:miter;stroke-miterlimit:4;stroke-dasharray:none;stroke-opacity:1"
           d="m 100.488,260.039 -1.859,0.617 1.547,88.203" /></g><g
         transform="matrix(1,0,0,-1,0,381.43451)"
         id="g178"><path
           id="path180"
           style="fill:none;stroke:#000000;stroke-width:2;stroke-linecap:round;stroke-linejoin:miter;stroke-miterlimit:4;stroke-dasharray:none;stroke-opacity:1"
           d="m 105.285,276.133 -1.726,1.816 -0.231,70.668" /></g><g
         transform="matrix(1,0,0,-1,0,381.43451)"
         id="g182"><path
           id="path184"
           style="fill:none;stroke:#000000;stroke-width:2;stroke-linecap:round;stroke-linejoin:miter;stroke-miterlimit:4;stroke-dasharray:none;stroke-opacity:1"
           d="m 115.961,328.434 -5.262,0.464 0.465,5.883 5.106,-0.312 0.621,3.406 7.789,0.5 -0.157,4.297 2.118,-0.156 -0.594,6.289" /></g><g
         transform="matrix(1,0,0,-1,0,381.43451)"
         id="g186"><path
           id="path188"
           style="fill:none;stroke:#000000;stroke-width:2;stroke-linecap:round;stroke-linejoin:miter;stroke-miterlimit:4;stroke-dasharray:none;stroke-opacity:1"
           d="m 111.012,334.934 0.152,13.773" /></g><g
         transform="matrix(1,0,0,-1,0,381.43451)"
         id="g190"><path
           id="path192"
           style="fill:none;stroke:#000000;stroke-width:2;stroke-linecap:round;stroke-linejoin:miter;stroke-miterlimit:4;stroke-dasharray:none;stroke-opacity:1"
           d="m 116.891,337.719 -0.465,4.332 -2.321,-0.309 v 6.656" /></g><g
         transform="matrix(1,0,0,-1,0,381.43451)"
         id="g194"><path
           id="path196"
           style="fill:none;stroke:#000000;stroke-width:2;stroke-linecap:round;stroke-linejoin:miter;stroke-miterlimit:4;stroke-dasharray:none;stroke-opacity:1"
           d="m 115.445,342.207 2.012,0.156 v 5.879" /></g><g
         transform="matrix(1,0,0,-1,0,381.43451)"
         id="g198"><path
           id="path200"
           style="fill:none;stroke:#000000;stroke-width:2;stroke-linecap:round;stroke-linejoin:miter;stroke-miterlimit:4;stroke-dasharray:none;stroke-opacity:1"
           d="m 124.305,342.828 -3.215,0.199 -0.024,4.907" /></g><g
         transform="matrix(1,0,0,-1,0,381.43451)"
         id="g202"><path
           id="path204"
           style="fill:none;stroke:#000000;stroke-width:2;stroke-linecap:round;stroke-linejoin:miter;stroke-miterlimit:4;stroke-dasharray:none;stroke-opacity:1"
           d="m 23.734,337.875 6.653,-0.309 -0.465,4.485 5.109,0.156 -0.312,5.879" /></g><g
         transform="matrix(1,0,0,-1,0,381.43451)"
         id="g206"><path
           id="path208"
           style="fill:none;stroke:#000000;stroke-width:2;stroke-linecap:round;stroke-linejoin:miter;stroke-miterlimit:4;stroke-dasharray:none;stroke-opacity:1"
           d="m 30.078,342.363 -3.715,-0.312 0.375,6.379" /></g><g
         transform="matrix(1,0,0,-1,0,381.43451)"
         id="g210"><path
           id="path212"
           style="fill:none;stroke:#000000;stroke-width:2;stroke-linecap:round;stroke-linejoin:miter;stroke-miterlimit:4;stroke-dasharray:none;stroke-opacity:1"
           d="m 67.723,326.461 0.089,-50.137 -7.714,-0.656 0.929,55.09 -3.715,0.308 -0.308,12.996 1.68,1.09 0.738,3.336" /></g><g
         transform="matrix(1,0,0,-1,0,381.43451)"
         id="g214"><path
           id="path216"
           style="fill:none;stroke:#000000;stroke-width:2;stroke-linecap:round;stroke-linejoin:miter;stroke-miterlimit:4;stroke-dasharray:none;stroke-opacity:1"
           d="m 46.105,290.746 h 3.5 l 0.438,50.336" /></g><g
         transform="matrix(1,0,0,-1,0,381.43451)"
         id="g218"><path
           id="path220"
           style="fill:none;stroke:#ff0000;stroke-width:2;stroke-linecap:round;stroke-linejoin:miter;stroke-miterlimit:4;stroke-dasharray:none;stroke-opacity:1"
           d="m 44.203,344.582 4.375,0.438 v 3.5" /></g><g
         transform="matrix(1,0,0,-1,0,381.43451)"
         id="g222"><path
           id="path224"
           style="fill:none;stroke:#ff0000;stroke-width:2;stroke-linecap:round;stroke-linejoin:miter;stroke-miterlimit:4;stroke-dasharray:none;stroke-opacity:1"
           d="m 68.711,343.27 3.066,0.437 -0.437,6.129" /></g><g
         transform="matrix(1,0,0,-1,0,381.43451)"
         id="g226"><path
           id="path228"
           style="fill:none;stroke:#000000;stroke-width:2;stroke-linecap:round;stroke-linejoin:miter;stroke-miterlimit:4;stroke-dasharray:none;stroke-opacity:1"
           d="m 134.367,341.012 -4.597,3.133 v 4.375" /></g><g
         transform="matrix(1,0,0,-1,0,381.43451)"
         id="g230"><path
           id="path232"
           style="fill:none;stroke:#000000;stroke-width:2;stroke-linecap:round;stroke-linejoin:miter;stroke-miterlimit:4;stroke-dasharray:none;stroke-opacity:1"
           d="m 92.129,278.273 3.281,4.157 0.668,47.64" /></g><g
         transform="matrix(1,0,0,-1,0,381.43451)"
         id="g234"><path
           id="path236"
           style="fill:none;stroke:#000000;stroke-width:2;stroke-linecap:round;stroke-linejoin:miter;stroke-miterlimit:4;stroke-dasharray:none;stroke-opacity:1"
           d="m 89.285,328.496 -3.066,0.766 v 10.945" /></g><g
         transform="matrix(1,0,0,-1,0,381.43451)"
         id="g238"><path
           id="path240"
           style="fill:none;stroke:#000000;stroke-width:2;stroke-linecap:round;stroke-linejoin:miter;stroke-miterlimit:4;stroke-dasharray:none;stroke-opacity:1"
           d="m 60.398,331.016 h 3.063 l -0.883,17.617" /></g><g
         transform="matrix(1,0,0,-1,0,381.43451)"
         id="g242"><path
           id="path244"
           style="fill:none;stroke:#000000;stroke-width:2;stroke-linecap:round;stroke-linejoin:miter;stroke-miterlimit:4;stroke-dasharray:none;stroke-opacity:1"
           d="m 107.23,288.996 1.75,59.524" /></g><g
         style="font-variant:normal;font-weight:normal;font-size:28.8px;font-family:Comfortaa;-inkscape-font-specification:Comfortaa;writing-mode:lr-tb;fill:#000000;fill-opacity:1;fill-rule:nonzero;stroke:none;stroke-width:0.99975;stroke-miterlimit:4;stroke-dasharray:none"
         id="text248"
         transform="scale(1,-1)"
         aria-label="Physcraper"><path
           style="stroke-width:0.99975;stroke-miterlimit:4;stroke-dasharray:none"
           id="path1431"
           d="m -0.12180014,-5.2500162 q -0.48959999,0 -0.80639998,-0.3168 -0.31679998,-0.3168 -0.31679998,-0.8064 V -26.619616 q 0,-0.4896 0.31679998,-0.8064 0.31679999,-0.3168 0.80639998,-0.3168 H 5.6381997 q 2.1024,0 3.7440003,0.9504 1.6704,0.9216 2.592,2.592 0.9216,1.6416 0.9216,3.7728 0,2.1024 -0.9216,3.744 -0.9216,1.6416 -2.592,2.5632 -1.6416003,0.9216 -3.7440003,0.9216 H 1.0013999 v 6.8255998 q 0,0.4896 -0.31680004,0.8064 -0.3168,0.3168 -0.8064,0.3168 z M 5.6381997,-15.358816 q 1.4688,0 2.6208,-0.6336 1.1520003,-0.6624 1.7856003,-1.8144 0.6624,-1.152 0.6624,-2.6208 0,-1.4976 -0.6624,-2.6496 -0.6336,-1.1808 -1.7856003,-1.8432 -1.152,-0.6624 -2.6208,-0.6624 H 1.0013999 v 10.224 z" /><path
           style="stroke-width:0.99975;stroke-miterlimit:4;stroke-dasharray:none"
           id="path1433"
           d="m 22.6038,-21.176416 q 2.0448,0 3.6576,0.864 1.6416,0.864 2.563199,2.5344 0.9216,1.6416 0.9216,3.9456 v 7.4879998 q 0,0.4608 -0.3168,0.7776 -0.3168,0.3168 -0.7776,0.3168 -0.4896,0 -0.806399,-0.3168 -0.3168,-0.3168 -0.3168,-0.7776 v -7.4879998 q 0,-2.5632 -1.44,-3.888 -1.4112,-1.3536 -3.7152,-1.3536 -1.4112,0 -2.5632,0.5472 -1.1232,0.5472 -1.7856,1.5264 -0.6624,0.9504 -0.6624,2.1312 v 8.5247998 q 0,0.4896 -0.3168,0.8064 -0.288,0.288 -0.7776,0.288 -0.4896,0 -0.8064,-0.288 -0.3168,-0.3168 -0.3168,-0.8064 V -26.619616 q 0,-0.4896 0.3168,-0.8064 0.3168,-0.3168 0.8064,-0.3168 0.4896,0 0.7776,0.3168 0.3168,0.3168 0.3168,0.8064 v 7.7184 q 0.9504,-1.0656 2.304,-1.6704 1.3536,-0.6048 2.9376,-0.6048 z" /><path
           style="stroke-width:0.99975;stroke-miterlimit:4;stroke-dasharray:none"
           id="path1435"
           d="m 43.714199,-20.917216 q 0.6624,0.2592 0.6624,0.8352 0,0.2592 -0.1152,0.5184 l -9.3312,20.50559962 q -0.2592,0.66239998 -0.8352,0.66239998 -0.288,0 -0.5184,-0.1152 -0.6624,-0.2592 -0.6624,-0.86399997 0,-0.25919999 0.1152,-0.51839998 l 2.8512,-6.30719985 v -0.0288 l -6.4224,-13.3055998 q -0.1152,-0.2304 -0.1152,-0.5184 0,-0.6048 0.6336,-0.864 0.2304,-0.1152 0.5184,-0.1152 0.6048,0 0.864,0.6048 l 5.616,11.8367999 5.3568,-11.8079999 q 0.288,-0.6336 0.864,-0.6336 0.2592,0 0.5184,0.1152 z" /><path
           style="stroke-width:0.99975;stroke-miterlimit:4;stroke-dasharray:none"
           id="path1437"
           d="m 52.613399,-5.1060162 q -1.7856,0 -3.4272,-0.6048 -1.6416,-0.6048 -2.6496,-1.6992 -0.288,-0.3455999 -0.288,-0.6623999 0,-0.4896 0.4608,-0.864 0.3456,-0.2592 0.72,-0.2592 0.4896,0 0.8352,0.4032 0.6912,0.8064 1.8144,1.2383999 1.152,0.432 2.5344,0.432 2.016,0 3.024,-0.6911999 1.008,-0.6912 1.0368,-1.8144 0,-1.0367999 -1.008,-1.7279999 -1.008,-0.6912 -3.1968,-1.0368 -2.8224,-0.4608 -4.2336,-1.584 -1.3824,-1.152 -1.3824,-2.7648 0,-2.1024 1.6128,-3.2544 1.6416,-1.152 4.0896,-1.152 1.9008,0 3.312,0.6624 1.4112,0.6336 2.2752,1.7856 0.2304,0.3744 0.2304,0.6624 0,0.4896 -0.4608,0.7776 -0.2016,0.144 -0.5472,0.144 -0.6048,0 -1.008,-0.432 -1.4112,-1.6128 -3.8592,-1.6128 -1.584,0 -2.5344,0.6624 -0.9504,0.6336 -0.9504,1.6128 0,1.0368 0.8928,1.6704 0.8928,0.6048 3.168,0.9792 3.0816,0.5184 4.4064,1.6992 1.3248,1.152 1.3248,2.8799999 0,1.3248 -0.8064,2.3615999 -0.7776,1.0368 -2.1888,1.6128 -1.4112,0.576 -3.1968,0.576 z" /><path
           style="stroke-width:0.99975;stroke-miterlimit:4;stroke-dasharray:none"
           id="path1439"
           d="m 69.029398,-5.1060162 q -2.2464,0 -4.032,-1.0368 -1.7856,-1.0656 -2.8224,-2.8799999 -1.008,-1.8431999 -1.008,-4.0895999 0,-2.304 0.9792,-4.1184 0.9792,-1.8432 2.7072,-2.88 1.728,-1.0368 3.888,-1.0368 3.6,0 5.8464,2.7648 0.2304,0.2592 0.2304,0.6048 0,0.4608 -0.4896,0.8064 -0.2592,0.1728 -0.5472,0.1728 -0.432,0 -0.8352,-0.432 -0.864,-0.9504 -1.9008,-1.4112 -1.0368,-0.4896 -2.304,-0.4896 -1.584,0 -2.8224,0.7776 -1.2384,0.7488 -1.9296,2.1312 -0.6624,1.3824 -0.6624,3.1104 0,1.6992 0.72,3.0816 0.72,1.3535999 2.016,2.1311999 1.296,0.7775999 2.9664,0.7775999 2.304,0 3.7152,-1.2383999 0.3744,-0.3168 0.7776,-0.3168 0.3456,0 0.6336,0.2304 0.4032,0.3456 0.4032,0.7776 0,0.3743999 -0.288,0.6335999 -2.0736,1.9296 -5.2416,1.9296 z" /><path
           style="stroke-width:0.99975;stroke-miterlimit:4;stroke-dasharray:none"
           id="path1441"
           d="m 84.840602,-21.176416 q 1.2096,0 1.9008,0.3168 0.72,0.3168 0.72,0.8928 0,0.1728 -0.0288,0.2592 -0.1152,0.4032 -0.3744,0.5472 -0.2304,0.144 -0.6624,0.144 -0.2592,0 -0.8928,-0.0576 -0.2304,-0.0288 -0.6912,-0.0288 -2.16,0 -3.5424,1.152 -1.3536,1.152 -1.3536,2.9952 v 8.6111998 q 0,0.5184 -0.288,0.8064 -0.288,0.288 -0.8064,0.288 -0.5184,0 -0.8064,-0.288 -0.288,-0.288 -0.288,-0.8064 V -19.909216 q 0,-0.5184 0.288,-0.8064 0.288,-0.288 0.8064,-0.288 0.5184,0 0.8064,0.288 0.288,0.288 0.288,0.8064 v 1.2672 q 0.8352,-1.2096 2.1312,-1.872 1.296,-0.6624 2.7936,-0.6624 z" /><path
           style="stroke-width:0.99975;stroke-miterlimit:4;stroke-dasharray:none"
           id="path1443"
           d="m 98.376603,-21.147616 q 2.246397,0 4.060797,1.0656 1.8432,1.0368 2.88,2.88 1.0656,1.8432 1.0656,4.0896 v 6.7679998 q 0,0.4608 -0.3168,0.7776 -0.3168,0.3168 -0.8064,0.3168 -0.4896,0 -0.8064,-0.288 -0.3168,-0.3168 -0.3168,-0.8064 v -1.7279999 q -1.008,1.3823999 -2.5632,2.1887999 -1.5552,0.7776 -3.427197,0.7776 -2.1888,0 -3.9744,-1.0368 -1.7568,-1.0656 -2.7936,-2.8799999 -1.008,-1.8431999 -1.008,-4.0895999 0,-2.2464 1.0368,-4.0896 1.0656,-1.8432 2.88,-2.88 1.8432,-1.0656 4.0896,-1.0656 z m 0,14.0255998 q 1.641597,0 2.966397,-0.7775999 1.3248,-0.7776 2.0736,-2.1311999 0.7776,-1.3824 0.7776,-3.0816 0,-1.6992 -0.7776,-3.0528 -0.7488,-1.3824 -2.0736,-2.16 -1.3248,-0.8064 -2.966397,-0.8064 -1.6416,0 -2.9952,0.8064 -1.3248,0.7776 -2.1024,2.16 -0.7488,1.3536 -0.7488,3.0528 0,1.6992 0.7488,3.0816 0.7776,1.3535999 2.1024,2.1311999 1.3536,0.7775999 2.9952,0.7775999 z" /><path
           style="stroke-width:0.99975;stroke-miterlimit:4;stroke-dasharray:none"
           id="path1445"
           d="m 117.2118,-21.147616 q 2.2464,0 4.0608,1.0656 1.8432,1.0368 2.88,2.88 1.0656,1.8432 1.0656,4.0896 0,2.2464 -1.0368,4.0895999 -1.008,1.8143999 -2.7936,2.8799999 -1.7568,1.0368 -3.9456,1.0368 -1.872,0 -3.4272,-0.7776 -1.5552,-0.8064 -2.5632,-2.1887999 v 8.43839974 q 0,0.48959999 -0.3168,0.80639996 -0.3168,0.3168 -0.8064,0.3168 -0.4896,0 -0.8064,-0.3168 -0.288,-0.31679997 -0.288,-0.80639996 V -6.0852162 q -0.0288,-0.0864 -0.0288,-0.2592 v -6.7679998 q 0,-2.2464 1.0368,-4.0896 1.0656,-1.8432 2.88,-2.88 1.8432,-1.0656 4.0896,-1.0656 z m 0,14.0255998 q 1.6416,0 2.9664,-0.7775999 1.3536,-0.7776 2.1024,-2.1311999 0.7776,-1.3824 0.7776,-3.0816 0,-1.6992 -0.7776,-3.0528 -0.7488,-1.3824 -2.1024,-2.16 -1.3248,-0.8064 -2.9664,-0.8064 -1.6416,0 -2.9664,0.8064 -1.3248,0.7776 -2.1024,2.16 -0.7488,1.3536 -0.7488,3.0528 0,0.4896 0.0288,0.72 0.0288,0.0576 0.0288,0.144 0.288,2.2464 1.872,3.6863999 1.6128,1.4399999 3.888,1.4399999 z" /><path
           style="stroke-width:0.99975;stroke-miterlimit:4;stroke-dasharray:none"
           id="path1447"
           d="m 133.9158,-21.147616 q 2.1312,0 3.7728,1.008 1.6416,0.9792 2.5344,2.736 0.9216,1.7568 0.9216,4.0032 0,0.4608 -0.288,0.7488 -0.288,0.2592 -0.7488,0.2592 h -11.6352 q 0.2304,2.3616 1.8432,3.8303999 1.6128,1.4687999 4.032,1.4687999 1.0368,0 2.0736,-0.3456 1.0656,-0.3743999 1.6992,-0.9215999 0.3744,-0.288 0.7776,-0.288 0.3168,0 0.6336,0.2304 0.3744,0.3456 0.3744,0.7776 0,0.3743999 -0.3168,0.6623999 -0.9504,0.8064 -2.4192,1.3536 -1.4688,0.5184 -2.8224,0.5184 -2.304,0 -4.1184,-1.008 -1.8144,-1.0368 -2.8512,-2.8511999 -1.008,-1.8431999 -1.008,-4.1471999 0,-2.3328 0.9504,-4.1472 0.9792,-1.8432 2.6784,-2.8512 1.728,-1.0368 3.9168,-1.0368 z m 0,1.9872 q -2.1888,0 -3.6288,1.3536 -1.44,1.3536 -1.7568,3.5712 h 10.5408 q -0.2304,-2.2176 -1.6128,-3.5712 -1.3824,-1.3536 -3.5424,-1.3536 z" /><path
           style="stroke-width:0.99975;stroke-miterlimit:4;stroke-dasharray:none"
           id="path1449"
           d="m 150.819,-21.176416 q 1.2096,0 1.9008,0.3168 0.72,0.3168 0.72,0.8928 0,0.1728 -0.0288,0.2592 -0.1152,0.4032 -0.3744,0.5472 -0.2304,0.144 -0.6624,0.144 -0.2592,0 -0.8928,-0.0576 -0.2304,-0.0288 -0.6912,-0.0288 -2.16,0 -3.5424,1.152 -1.3536,1.152 -1.3536,2.9952 v 8.6111998 q 0,0.5184 -0.288,0.8064 -0.288,0.288 -0.8064,0.288 -0.5184,0 -0.8064,-0.288 -0.288,-0.288 -0.288,-0.8064 V -19.909216 q 0,-0.5184 0.288,-0.8064 0.288,-0.288 0.8064,-0.288 0.5184,0 0.8064,0.288 0.288,0.288 0.288,0.8064 v 1.2672 q 0.8352,-1.2096 2.1312,-1.872 1.296,-0.6624 2.7936,-0.6624 z" /></g></g></g></svg>
